<svg xmlns="http://www.w3.org/2000/svg" width="16" height="16"><g><g class="tank"><g class="left-tire"><rect x="1" y="5" width="3" height="9" fill="#E7E794"></rect><rect x="2" y="5" width="1" height="9" fill="#E79C21"></rect><g class="left-tire-shape-0"><g transform="translate(1,4)"><rect x="0" y="0" width="1" height="1" fill="#E7E794"></rect><rect x="1" y="0" width="1" height="1" fill="#E79C21"></rect><rect x="2" y="0" width="1" height="1" fill="#E79C21"></rect></g><g transform="translate(1,14)"><rect x="0" y="0" width="1" height="1" fill="#E7E794"></rect><rect x="1" y="0" width="1" height="1" fill="#E79C21"></rect><rect x="2" y="0" width="1" height="1" fill="#E79C21"></rect></g><rect x="1" width="2" y="5" height="1" fill="#6B6B00"></rect><rect x="1" width="2" y="7" height="1" fill="#6B6B00"></rect><rect x="1" width="2" y="9" height="1" fill="#6B6B00"></rect><rect x="1" width="2" y="11" height="1" fill="#6B6B00"></rect><rect x="1" width="2" y="13" height="1" fill="#6B6B00"></rect></g></g><g class="right-tire"><rect x="11" y="4" width="3" height="11" fill="#6B6B00"></rect><rect x="11" y="4" width="1" height="1" fill="#E7E794"></rect><g class="right-tire-shape-0"><rect x="12" width="2" y="4" height="1" fill="#E79C21"></rect><rect x="12" width="2" y="6" height="1" fill="#E79C21"></rect><rect x="12" width="2" y="8" height="1" fill="#E79C21"></rect><rect x="12" width="2" y="10" height="1" fill="#E79C21"></rect><rect x="12" width="2" y="12" height="1" fill="#E79C21"></rect><rect x="12" width="2" y="14" height="1" fill="#E79C21"></rect></g></g><g class="tank-body"><path d="M4,7 h1 v-1 h1 v2 h-1 v3 h1 v1 h1 v1 h-2 v-1 h-1 v-5" fill="#E7E794"></path><rect x="4" y="12" width="1" height="1" fill="#6B6B00"></rect><path d="M6,6 h1 v1 h3 v1 h1 v4 h-1 v1 h-3 v-1 h-1 v-1 h-1 v-3 h1 v-2" fill="#E79C21"></path><rect x="10" y="12" width="1" height="1" fill="#6B6B00"></rect><rect x="5" y="13" width="5" height="1" fill="#6B6B00"></rect><rect x="8" width="2" y="6" height="1" fill="#6B6B00"></rect><rect x="10" y="7" width="1" height="1" fill="#6B6B00"></rect><path d="M6,8 h2 v1 h-1 v2 h-1 v-3" fill="#E7E794"></path><path d="M8,9 h1 v3 h-2 v-1 h1 v-2" fill="#6B6B00"></path></g><rect class="gun" x="7" y="2" width="1" height="5" fill="#E7E794"></rect></g></g></svg>